# xmcd
#
# Track frame offsets:
#	150
#	12698
#	26661
#	40275
#	52008
#	66006
#	80291
#	91657
#	103568
#	117365
#	132325
#	149682
#	169675
#	189245
#	213751
#
# Disc length: 3044 seconds
#
# Revision: 1
# Processed by: cddbd v1.5.2PL0 Copyright (c) Steve Scherf et al.
# Submitted via: audiograbber 1.83.01
#
DISCID=cc0be20f
DTITLE=Various Artist - CB-E8-03
DYEAR=1900
DGENRE=Karaoke
TTITLE0=Tammy Wynette and George Jones - (We're Not) The Jet Set
TTITLE1=Don Williams - I Wouldn't Want To Live If You Didn't Love Me
TTITLE2=Tanya Tucker - What's Your Mama's Name
TTITLE3=Charlie Rich - I Love My Friend
TTITLE4=Loretta Lynn and Conway Twitty - Feelins'
TTITLE5=Mickey Gilley - A Room Full Of Roses
TTITLE6=Tanya Tucker - Would You Lay With Me (In A Field Of Stone)
TTITLE7=Ronnie Milsap - Pure Love
TTITLE8=Billie Jo Spears - Stay Away From The Apple Tree
TTITLE9=Conway Twitty - Games That Daddies Play, The
TTITLE10=Eddie Rabbitt - Rocky Mountain Music
TTITLE11=Kenny Rogers - While The Feeling's Good
TTITLE12=Eddie Rabbitt - Kentucky Rain
TTITLE13=Red Sovine - Teddy Bear
TTITLE14=Emmylou Harris - One Of These Days
EXTD=
EXTT0=
EXTT1=
EXTT2=
EXTT3=
EXTT4=
EXTT5=
EXTT6=
EXTT7=
EXTT8=
EXTT9=
EXTT10=
EXTT11=
EXTT12=
EXTT13=
EXTT14=
PLAYORDER=
